<?xml version="1.0" encoding="utf-8"?>
<!-- Generator: Adobe Illustrator 23.0.6, SVG Export Plug-In . SVG Version: 6.00 Build 0)  -->
<svg version="1.1" id="Layer_1" xmlns="http://www.w3.org/2000/svg" xmlns:xlink="http://www.w3.org/1999/xlink" x="0px" y="0px"
	 viewBox="0 0 475 494.8" style="enable-background:new 0 0 475 494.8;" xml:space="preserve">
<path d="M329.7,246.9c-0.1,50.8-42.7,93.3-93.1,92.7c-49.8-0.5-91.4-42.8-91.3-92.9c0.1-50.8,42.7-93.3,93.1-92.8
	C288.2,154.5,329.8,196.7,329.7,246.9z M235.3,293.8c27.5,0.9,49.2-19.4,49.6-46.4c0.4-25.7-19.7-46.9-45.3-47.7
	c-27.4-0.8-49.3,19.5-49.7,46.4C189.5,271.7,209.8,293,235.3,293.8z"/>
<path d="M438,260.7c-4.6-4.4-7-8.9-7.2-13.3c0.2-4.4,2.6-8.9,7.2-13.3c7.8-7.5,16.1-14.6,23.7-22.4c12.4-12.6,17.4-28,9.4-44.1
	c-13.3-26.7-27.3-53.2-43.2-78.5C416.4,71,398,66.6,377.3,73.2c-8.9,2.8-17.9,5.1-26.9,7.5c-14.5,3.9-20.8,0.2-24.9-14.6
	c-2.7-10-4.7-20.2-7.4-30.2c-4.7-16.8-14.8-27.6-32.8-31.2c-31.9-6.4-63.6-6.4-95.5-0.1c-18.7,3.7-28.8,15.2-33.4,32.5
	c-2.8,10.5-4.6,21.3-7.7,31.7c-3.3,11-10.5,16.3-22.4,12.4c-6.9-2.2-13.9-4.1-20.8-6.1c-32.6-9.5-44.3-7-63.6,21.5
	c-14.7,21.7-26,45.7-37.5,69.3c-8.8,18-3.7,34.3,10.9,47.7c7.2,6.7,14.5,13.3,21.6,20.1c4.7,4.5,7.2,9,7.4,13.5
	c-0.2,4.5-2.7,9.1-7.4,13.5c-7.1,6.8-14.4,13.4-21.6,20.1C0.6,294.5-4.5,310.7,4.3,328.7c11.5,23.6,22.9,47.6,37.5,69.3
	c19.3,28.5,31,31,63.6,21.5c6.9-2,14-3.9,20.8-6.1c12-3.9,19.2,1.3,22.4,12.4c3.1,10.4,4.9,21.2,7.7,31.7
	c4.6,17.4,14.7,28.8,33.4,32.5c31.9,6.3,63.6,6.4,95.5-0.1c18-3.6,28.1-14.4,32.8-31.2c2.8-10,4.7-20.2,7.4-30.2
	c4-14.8,10.4-18.5,24.9-14.6c9,2.4,18,4.7,26.9,7.5c20.7,6.7,39.2,2.3,50.6-15.9c15.9-25.2,29.9-51.7,43.2-78.5
	c8-16,3-31.5-9.4-44.1C454.1,275.3,445.8,268.2,438,260.7z M424.8,324.4c-5.6,11-10.8,22.4-17.4,32.9
	c-13.8,22.1-14.2,21.9-38.9,14.7c-45.4-13.1-75.7,4.5-87.3,50.5c-6.7,26.5-6.7,26.5-33.6,26.8c-2.1,0-4.1,0-6.2,0
	c-38.8,0.1-38.8,0.1-49.4-37.6c-9-32-42.7-50.8-75.9-42.3c-37.5,9.6-37.5,9.6-56.3-24.8c-0.7-1.4-1.5-2.7-2.2-4.1
	c-13.1-25.3-13.1-25.3,7.6-44.7c16-15,24-31.7,24-48.5c0-16.8-8-33.5-24-48.5c-20.7-19.4-20.7-19.4-7.6-44.7
	c0.7-1.4,1.4-2.8,2.2-4.1c18.9-34.4,18.9-34.4,56.3-24.8c33.2,8.5,66.9-10.3,75.9-42.3c10.6-37.7,10.6-37.7,49.4-37.6
	c2.1,0,4.1,0,6.2,0c27,0.3,27,0.3,33.6,26.8c11.6,46,41.9,63.6,87.3,50.5c24.8-7.1,25.1-7.3,38.9,14.7c6.6,10.5,11.7,21.8,17.4,32.9
	c1.4,2.7,2.1,5.8,4.4,12.3c-5.8,5-13,10.8-19.5,17.1c-15.6,15-23.5,31.3-23.9,47.6c0.4,16.3,8.3,32.6,23.9,47.6
	c6.6,6.3,13.7,12.1,19.5,17.1C426.9,318.6,426.2,321.6,424.8,324.4z"/>
</svg>
