<?xml version="1.0" encoding="utf-8"?>
<!-- Generator: Adobe Illustrator 23.0.6, SVG Export Plug-In . SVG Version: 6.00 Build 0)  -->
<svg version="1.1" xmlns="http://www.w3.org/2000/svg" xmlns:xlink="http://www.w3.org/1999/xlink" x="0px" y="0px"
	 viewBox="0 0 232.6 232.6" style="enable-background:new 0 0 232.6 232.6;" xml:space="preserve">
<style type="text/css">
	.st0{fill:url(#XMLID_2_);}
	.st1{fill:url(#XMLID_3_);}
	.st2{fill:url(#XMLID_4_);}
</style>
<g id="Background">
</g>
<g id="Elements">
	<g id="XMLID_332_">
		<radialGradient id="XMLID_2_" cx="-20.8081" cy="242.8725" r="429.0754" gradientUnits="userSpaceOnUse">
			<stop  offset="0" style="stop-color:#F9ED41"/>
			<stop  offset="0.2412" style="stop-color:#FF833D"/>
			<stop  offset="0.401" style="stop-color:#EE5568"/>
			<stop  offset="0.4888" style="stop-color:#E7407B"/>
			<stop  offset="1" style="stop-color:#0028FF"/>
		</radialGradient>
		<path id="XMLID_337_" class="st0" d="M161.4,232.6H71.2C31.9,232.6,0,200.7,0,161.4V71.2C0,31.9,31.9,0,71.2,0h90.2
			c39.3,0,71.2,31.9,71.2,71.2v90.2C232.6,200.7,200.7,232.6,161.4,232.6z M71.2,17.4c-29.7,0-53.8,24.1-53.8,53.8v90.2
			c0,29.7,24.1,53.8,53.8,53.8h90.2c29.7,0,53.8-24.1,53.8-53.8V71.2c0-29.7-24.1-53.8-53.8-53.8H71.2z"/>
		<radialGradient id="XMLID_3_" cx="-20.8079" cy="242.8717" r="429.0753" gradientUnits="userSpaceOnUse">
			<stop  offset="0" style="stop-color:#F9ED41"/>
			<stop  offset="0.2412" style="stop-color:#FF833D"/>
			<stop  offset="0.401" style="stop-color:#EE5568"/>
			<stop  offset="0.4888" style="stop-color:#E7407B"/>
			<stop  offset="1" style="stop-color:#0028FF"/>
		</radialGradient>
		<path id="XMLID_334_" class="st1" d="M116.3,175.1c-32.4,0-58.8-26.4-58.8-58.8c0-32.4,26.4-58.8,58.8-58.8
			c32.4,0,58.8,26.4,58.8,58.8C175.1,148.8,148.8,175.1,116.3,175.1z M116.3,75.3c-22.6,0-41,18.4-41,41c0,22.6,18.4,41,41,41
			c22.6,0,41-18.4,41-41C157.3,93.7,138.9,75.3,116.3,75.3z"/>
		<radialGradient id="XMLID_4_" cx="-20.8072" cy="242.8714" r="429.0744" gradientUnits="userSpaceOnUse">
			<stop  offset="0" style="stop-color:#F9ED41"/>
			<stop  offset="0.2412" style="stop-color:#FF833D"/>
			<stop  offset="0.401" style="stop-color:#EE5568"/>
			<stop  offset="0.4888" style="stop-color:#E7407B"/>
			<stop  offset="1" style="stop-color:#0028FF"/>
		</radialGradient>
		<path id="XMLID_333_" class="st2" d="M196.9,51.1c0,8.5-6.9,15.3-15.3,15.3c-8.5,0-15.3-6.9-15.3-15.3c0-8.5,6.9-15.3,15.3-15.3
			C190,35.7,196.9,42.6,196.9,51.1z"/>
	</g>
</g>
</svg>
