<?xml version="1.0" encoding="utf-8"?>
<!-- Generator: Adobe Illustrator 23.0.6, SVG Export Plug-In . SVG Version: 6.00 Build 0)  -->
<svg version="1.1" id="Layer_1" xmlns="http://www.w3.org/2000/svg" xmlns:xlink="http://www.w3.org/1999/xlink" x="0px" y="0px"
	 viewBox="0 0 982.4 151.2" style="enable-background:new 0 0 982.4 151.2;" xml:space="preserve">
<g>
	<path d="M57.6,151.2H18.1V33.9H0V0h57.6V151.2z"/>
	<path d="M118.6,54.4H81V16.9h37.7V54.4z M118.6,133.5H81V96h37.7V133.5z"/>
	<path d="M281.1,119.2c0,4.8-0.8,9.1-2.4,13c-1.6,3.9-3.8,7.2-6.6,10.1c-2.8,2.8-6.2,5-10.2,6.6c-4,1.6-8.3,2.4-12.9,2.4H139.7V0
		h109.4c4.6,0,8.9,0.8,12.9,2.4c4,1.6,7.3,3.8,10.2,6.6c2.8,2.8,5,6.2,6.6,10.2c1.6,4,2.4,8.3,2.4,12.9V119.2z M243.4,117.3v-83
		h-66.1v83H243.4z"/>
</g>
<g>
	<path d="M476.3,131c0,5.1-1.6,9.3-4.8,12.5c-3.2,3.2-7.4,4.8-12.5,4.8h-85.8c-5.1,0-9.3-1.6-12.5-4.8c-3.2-3.2-4.8-7.4-4.8-12.5
		V17.3c0-5.1,1.6-9.3,4.8-12.5C363.8,1.6,368,0,373.1,0H459c5.1,0,9.3,1.6,12.5,4.8c3.2,3.2,4.8,7.4,4.8,12.5v37.8h-19.6V20.3
		c0-2-1-3-3-3h-75.3c-2,0-3,1-3,3V128c0,2,1,3,3,3h75.3c2,0,3-1,3-3V93.4h19.6V131z"/>
	<path d="M584.6,148.4H517c-5.1,0-9.3-1.6-12.5-4.8c-3.2-3.2-4.8-7.4-4.8-12.5V0h19.6v127.6c0,1,0.3,1.8,0.9,2.4
		c0.6,0.6,1.4,0.9,2.4,0.9h61.9V148.4z"/>
	<path d="M732.9,148.4h-21.1l-14.5-39h-67.8l-14.5,39H594L651.2,0h24.5L732.9,148.4z M690.9,92.1l-27.5-74.2l-27.5,74.2H690.9z"/>
	<path d="M851.5,131c0,5.1-1.6,9.3-4.8,12.5c-3.2,3.2-7.4,4.8-12.5,4.8h-75.5c-5.1,0-9.3-1.6-12.5-4.8c-3.2-3.2-4.8-7.4-4.8-12.5
		V98.8H761V128c0,2,1,3,3,3h65c2,0,3-1,3-3V81.7c0-2-1-3-3-3h-70.2c-5.1,0-9.3-1.6-12.5-4.8c-3.2-3.2-4.8-7.4-4.8-12.5V17.3
		c0-5.1,1.6-9.3,4.8-12.5S753.5,0,758.7,0h74.6c5.1,0,9.3,1.6,12.5,4.8s4.8,7.4,4.8,12.5V45H831V20.3c0-2-1-3-3-3h-64c-2,0-3,1-3,3
		v38c0,2,1,3,3,3h70.2c5.1,0,9.3,1.6,12.5,4.8c3.2,3.2,4.8,7.4,4.8,12.5V131z"/>
	<path d="M982.4,131c0,5.1-1.6,9.3-4.8,12.5c-3.2,3.2-7.4,4.8-12.5,4.8h-75.5c-5.1,0-9.3-1.6-12.5-4.8c-3.2-3.2-4.8-7.4-4.8-12.5
		V98.8h19.6V128c0,2,1,3,3,3h65c2,0,3-1,3-3V81.7c0-2-1-3-3-3h-70.2c-5.1,0-9.3-1.6-12.5-4.8c-3.2-3.2-4.8-7.4-4.8-12.5V17.3
		c0-5.1,1.6-9.3,4.8-12.5S884.4,0,889.5,0h74.6c5.1,0,9.3,1.6,12.5,4.8s4.8,7.4,4.8,12.5V45h-19.6V20.3c0-2-1-3-3-3h-64
		c-2,0-3,1-3,3v38c0,2,1,3,3,3H965c5.1,0,9.3,1.6,12.5,4.8c3.2,3.2,4.8,7.4,4.8,12.5V131z"/>
</g>
</svg>
