<?xml version="1.0" encoding="utf-8"?>
<!-- Generator: Adobe Illustrator 23.0.6, SVG Export Plug-In . SVG Version: 6.00 Build 0)  -->
<svg version="1.1" id="Layer_1" xmlns="http://www.w3.org/2000/svg" xmlns:xlink="http://www.w3.org/1999/xlink" x="0px" y="0px"
	 viewBox="0 0 496.1 421.4" style="enable-background:new 0 0 496.1 421.4;" xml:space="preserve">
<style type="text/css">
	.st0{fill:#8F8F8F;}
</style>
<path class="st0" d="M495.7,163.8c-0.4-36.3-25.3-60.5-61.8-61c-19.6-0.2-39.2-0.1-58.8-0.1V142c19.6,0,38.9,0,58.2,0.1
	c15.6,0.1,23.7,6.3,23.9,20.6c0.5,48.9,0.5,97.7,0,146.6c-0.1,13.3-8.1,19.6-21.8,20.1c-8.4,0.3-16.9,0.1-25.3,0.1
	c-27.2,0-30.5,3-32.7,29.7c-0.1,1.5-1.1,3-2.2,5.6c-11.5-7.6-22.6-14-32.7-21.8c-13.3-10.2-27.4-14.8-44.4-13.7
	c-19.5,1.2-39.1,0.4-58.6,0.2c-15.6-0.2-22.7-7.2-23.5-22.7c-0.2-4.4-0.1-8.8-0.1-13.2h-36.9c-7.5,42.2,19.2,74.8,61.9,75.2
	c20.4,0.2,40.9-0.3,61.3,0.3c5.8,0.2,12.3,2.1,17.2,5.2c21.7,13.8,42.8,28.6,64.5,42.5c16.4,10.6,31.2,2.6,32-17.1
	c0.4-9.7,0.1-19.4,0.1-30.9c7.5,0,12.8,0.1,18.1,0c36.5-0.6,61.5-24.7,61.8-61C496.2,259.7,496.2,211.8,495.7,163.8z"/>
<path class="st0" d="M80.2,266c-7.4,0-13.1,0.1-18.8,0c-35.8-0.8-60.1-24.5-61.1-60.3c-0.6-22.2-0.1-44.4-0.1-66.6
	c0-25.3-0.3-50.6,0.1-75.9c0.5-38.8,24.9-62.9,63.8-63C136.5,0,208.9,0,281.3,0.1c38.9,0.1,63.6,24.4,63.8,63
	c0.3,46.6,0.3,93.3,0,139.9c-0.2,38.6-24.9,62.8-63.9,63c-28.9,0.1-57.7-0.3-86.6,0.3c-6.2,0.1-13.1,2.2-18.4,5.5
	c-21,13.3-41.5,27.4-62.2,41.2c-7.3,4.9-15.8,10-23,3.1c-5.4-5.2-8.9-13.6-10.4-21.2C78.9,286,80.2,276.5,80.2,266z M120.2,262.3
	c11.7-7.7,22.5-13.9,32.3-21.4c14-10.8,28.9-15.4,46.9-14.5c26.6,1.3,53.3,0.4,80,0.3c20.8,0,27.4-6.2,27.5-26.8
	c0.2-44.4,0.2-88.9,0-133.3c-0.1-21.2-6.5-27.3-28.3-27.3c-70.7,0-141.3,0-212,0c-22,0-28.1,6.3-28.1,28.8c-0.1,39.1,0,78.2,0,117.3
	c0,39.7,1.5,41.3,41,41.3C114.3,226.8,114.3,226.8,120.2,262.3z"/>
</svg>
