<?xml version="1.0" encoding="utf-8"?>
<!-- Generator: Adobe Illustrator 23.0.6, SVG Export Plug-In . SVG Version: 6.00 Build 0)  -->
<svg version="1.1" id="Layer_1" xmlns="http://www.w3.org/2000/svg" xmlns:xlink="http://www.w3.org/1999/xlink" x="0px" y="0px"
	 viewBox="0 0 472.8 377.3" style="enable-background:new 0 0 472.8 377.3;" xml:space="preserve">
<path d="M325.4,65c29.5,0,53.5,24,53.2,53.1c-0.3,28.9-23.9,52.3-53,52.3c-22,0-41-13.4-49.1-32.3c-4.3,10.9-10,21.1-17.1,30.2
	c15.2,20,39.2,32.9,65.9,33c45.7,0,83.3-37.6,83.4-83.5c0.1-45.9-37.4-83.7-83.1-83.8c-18.2,0-35.1,5.9-48.8,16
	c4.2,10.9,6.8,22.4,7.7,34.3C294.3,72.6,309,65,325.4,65z"/>
<path d="M254.4,74.5C245.5,32.2,207.9,0.1,163.3,0c-0.1,0-0.1,0-0.2,0c-51.1,0-93.2,42.2-93.3,93.7c-0.1,51.5,42,93.9,93.2,94
	c0,0,0,0,0.1,0c35.2,0,66-19.9,81.9-49c7.3-13.3,11.5-28.5,11.5-44.7C256.5,87.3,255.8,80.8,254.4,74.5z M163.2,153c0,0-0.1,0-0.1,0
	c-33,0-59.9-26.9-59.6-59.6c0.3-32.3,27-58.7,59.4-58.7c0,0,0,0,0,0c0,0,0,0,0,0c33,0,60,26.9,59.6,59.6
	C222.3,126.7,195.8,152.9,163.2,153z"/>
<path d="M389.2,239.7c-17.8-5.2-48.4-6.6-63.6-6.6c-6.8,0-16.8,0.3-27.3,1.1c10.2,8.2,19.3,17.7,26.9,28.2c0.9,1.3,1.8,2.6,2.7,3.9
	c17.7,0.1,40.6,2,51.9,5.3c49.4,14.5,59.7,53.7,59.7,84.1c0,9.2,7.4,16.6,16.6,16.6s16.6-7.4,16.6-16.6
	C472.8,297.5,442.3,255.3,389.2,239.7z"/>
<path d="M293,267.9c-10-10.8-22.2-19.7-36.3-26.6c-7.1-3.5-14.7-6.4-22.8-8.8c-19.8-5.8-53.8-7.4-70.8-7.4c-17,0-51,1.6-70.8,7.4
	C33.6,249.8,0,296.5,0,360.6c0,9.2,7.4,16.6,16.6,16.6c9.2,0,16.6-7.4,16.6-16.6c0-34.7,11.9-79.6,68.4-96.2c13.5-4,41.1-6,61.5-6
	c17.4,0,40,1.5,54.7,4.4c2.5,0.5,4.8,1,6.8,1.6c4.2,1.2,8.1,2.6,11.8,4.2h1v0.4c6.3,2.7,12,5.8,17.1,9.2
	c31.1,21.2,38.6,55,38.6,82.5c0,9.2,7.4,16.6,16.6,16.6c9.2,0,16.6-7.4,16.6-16.6C326.2,322.8,314.6,291.1,293,267.9z"/>
</svg>
